<svg xmlns="http://www.w3.org/2000/svg" width="820" height="520" viewBox="0 0 820 520">
  <defs>
    <style>
      .bg { fill: #1e1e2e; rx: 10; ry: 10; }
      .title-bar { fill: #313244; }
      .dot-red { fill: #f38ba8; }
      .dot-yellow { fill: #f9e2af; }
      .dot-green { fill: #a6e3a1; }
      .text { font-family: 'SF Mono', 'Fira Code', 'Cascadia Code', monospace; font-size: 13px; fill: #cdd6f4; }
      .dim { fill: #6c7086; }
      .green { fill: #a6e3a1; }
      .yellow { fill: #f9e2af; }
      .bold { font-weight: bold; fill: #cdd6f4; }
      .white-bold { font-weight: bold; fill: #ffffff; }
      .prompt { fill: #89b4fa; }
    </style>
  </defs>
  <rect class="bg" width="820" height="520" />
  <rect class="title-bar" x="0" y="0" width="820" height="36" rx="10" ry="10" />
  <rect class="title-bar" x="0" y="20" width="820" height="16" />
  <circle class="dot-red" cx="20" cy="18" r="6" />
  <circle class="dot-yellow" cx="40" cy="18" r="6" />
  <circle class="dot-green" cx="60" cy="18" r="6" />
  <text class="dim" x="370" y="22" text-anchor="middle" font-size="12">sourcebook — create-t3-app</text>

  <text class="prompt" x="20" y="64">$</text>
  <text class="text" x="35" y="64">npx sourcebook init --format all</text>

  <text class="white-bold" x="20" y="96">sourcebook</text>
  <text class="dim" x="20" y="114">Extracting repo truths...</text>

  <text class="green" x="20" y="146">&#x2713;</text>
  <text class="text" x="36" y="146">Scanned project structure</text>
  <text class="dim" x="36" y="164">544 files, 3 frameworks detected</text>

  <text class="green" x="20" y="192">&#x2713;</text>
  <text class="text" x="36" y="192">Extracted 6 findings</text>

  <text class="green" x="28" y="222">&#x25CF;</text>
  <text class="bold" x="44" y="222">Project structure:</text>
  <text class="text" x="186" y="222">This is a monorepo. Check workspace deps before</text>
  <text class="text" x="186" y="238">modifying shared code.</text>

  <text class="green" x="28" y="264">&#x25CF;</text>
  <text class="bold" x="44" y="264">Import conventions:</text>
  <text class="text" x="198" y="264">Strongly prefers path alias imports (@/) over</text>
  <text class="text" x="198" y="280">relative imports.</text>
  <text class="dim" x="44" y="296">evidence: 58 alias imports vs 28 relative imports</text>

  <text class="green" x="28" y="322">&#x25CF;</text>
  <text class="bold" x="44" y="322">Export conventions:</text>
  <text class="text" x="198" y="322">Strongly prefers named exports (75:18 ratio)</text>

  <text class="green" x="28" y="348">&#x25CF;</text>
  <text class="bold" x="44" y="348">Commit conventions:</text>
  <text class="text" x="198" y="348">Uses Conventional Commits (feat/fix/docs)</text>

  <text class="green" x="28" y="374">&#x25CF;</text>
  <text class="bold" x="44" y="374">Core modules:</text>
  <text class="text" x="149" y="374">Hub: www/src/config.ts (imported by 6 files).</text>
  <text class="text" x="149" y="390">Changes here have the widest blast radius.</text>

  <text class="green" x="20" y="424">&#x2713;</text>
  <text class="text" x="36" y="424">Wrote CLAUDE.md</text>
  <text class="green" x="20" y="442">&#x2713;</text>
  <text class="text" x="36" y="442">Wrote .cursor/rules/sourcebook.mdc</text>
  <text class="green" x="20" y="460">&#x2713;</text>
  <text class="text" x="36" y="460">Wrote .github/copilot-instructions.md</text>

  <text class="dim" x="20" y="496">Done in 0.8s</text>
</svg>
